<?xml version="1.0" encoding="utf-8"?>
<!-- Generator: Adobe Illustrator 22.1.0, SVG Export Plug-In . SVG Version: 6.00 Build 0)  -->
<svg version="1.1" id="Capa_1" xmlns="http://www.w3.org/2000/svg" xmlns:xlink="http://www.w3.org/1999/xlink" x="0px" y="0px"
	 viewBox="0 0 556.2 556.2" style="enable-background:new 0 0 556.2 556.2;" xml:space="preserve">
<g>
	<g>
		<path d="M173.7,493.9c39.2,0,75.3-13.2,104.4-35.2c29.1,22,65.2,35.2,104.4,35.2c95.8,0,173.7-77.9,173.7-173.7
			c0-95.8-77.9-173.7-173.7-173.7c-39.2,0-75.3,13.2-104.4,35.2c-29.1-22-65.2-35.2-104.4-35.2C77.9,146.5,0,224.4,0,320.2
			C0,416,77.9,493.9,173.7,493.9z M278.1,250c13.5,20.1,21.4,44.2,21.4,70.2s-7.9,50.1-21.4,70.2c-13.5-20.1-21.4-44.2-21.4-70.2
			S264.6,270.1,278.1,250z M382.5,194.3c69.4,0,125.9,56.5,125.9,125.9c0,69.4-56.5,125.9-125.9,125.9c-26,0-50.2-7.9-70.3-21.5
			c22-29.1,35.2-65.1,35.2-104.3s-13.2-75.2-35.2-104.3C332.3,202.3,356.5,194.3,382.5,194.3z M173.7,194.3c26,0,50.2,7.9,70.3,21.5
			c-22,29.1-35.2,65.2-35.2,104.3s13.2,75.2,35.2,104.3c-20.1,13.6-44.3,21.5-70.3,21.5c-69.4,0-125.9-56.5-125.9-125.9
			C47.8,250.8,104.3,194.3,173.7,194.3z"/>
		<path d="M274.8,77.9h-0.2c0,0-26.4-28.9-49.5-7.8s-2.9,69.9,49.5,91l0.2,0.2c52.4-21.1,72.6-70,49.5-91.2
			C301.2,48.9,274.8,77.9,274.8,77.9z"/>
	</g>
</g>
</svg>
