<?xml version="1.0" encoding="utf-8"?>
<!-- Generator: Adobe Illustrator 22.1.0, SVG Export Plug-In . SVG Version: 6.00 Build 0)  -->
<svg version="1.1" id="Capa_1" xmlns="http://www.w3.org/2000/svg" xmlns:xlink="http://www.w3.org/1999/xlink" x="0px" y="0px"
	 viewBox="0 0 535.5 535.5" style="enable-background:new 0 0 535.5 535.5;" xml:space="preserve">
<g>
	<g>
		<path d="M511.6,288.5c-13.2,0-23.9,10.7-23.9,23.9v36.1l-59.8-59.8c13.6-20,21-43.6,21-68.3c0-32.5-12.7-63-35.6-86
			c-23-23-53.5-35.6-86-35.6c-21,0-41.1,5.3-58.9,15.3c-17.8-9.9-38-15.3-58.9-15.3c-32.5,0-63,12.7-86,35.6
			c-23,23-35.6,53.5-35.6,86c0,24.7,7.4,48.3,21,68.3l-60.9,60.9v-46.8c0-13.2-10.7-23.9-23.9-23.9S0,289.7,0,302.9v95.6
			c0,10.4,6.6,19.1,15.8,22.4c3.3,9.2,12.1,15.8,22.4,15.8h95.6c13.2,0,23.9-10.7,23.9-23.9s-10.7-23.9-23.9-23.9H76.2l66.7-66.7
			c19.6,12.9,42.5,19.8,66.5,19.8c21,0,41.1-5.3,58.9-15.3c17.8,9.9,38,15.3,58.9,15.3c24,0,46.9-6.9,66.5-19.8l66.7,66.7h-49.3
			c-13.2,0-23.9,10.7-23.9,23.9s10.7,23.9,23.9,23.9h95.6c7.8,0,14.7-3.8,19.1-9.6c5.8-4.4,9.6-11.2,9.6-19.1v-95.6
			C535.5,299.2,524.8,288.5,511.6,288.5z M268.3,264.8c-9.6-12.7-14.9-28.1-14.9-44.4s5.3-31.6,14.9-44.4
			c9.6,12.7,14.9,28.1,14.9,44.4C283.2,236.6,277.9,252,268.3,264.8z M209.4,294.3c-19.7,0-38.3-7.7-52.2-21.6
			c-13.9-13.9-21.6-32.5-21.6-52.2s7.7-38.3,21.6-52.2c13.9-13.9,32.5-21.6,52.2-21.6c6.6,0,13.1,0.9,19.4,2.6
			c-15,20.6-23.2,45.3-23.2,71.2s8.2,50.6,23.2,71.2C222.5,293.3,216,294.3,209.4,294.3z M307.9,291.6c15-20.6,23.2-45.3,23.2-71.2
			s-8.2-50.6-23.1-71.2c6.2-1.7,12.7-2.6,19.4-2.6c19.7,0,38.3,7.7,52.2,21.6c13.9,13.9,21.6,32.5,21.6,52.2s-7.7,38.3-21.6,52.2
			c-13.9,13.9-32.5,21.6-52.2,21.6C320.6,294.3,314.1,293.3,307.9,291.6z"/>
	</g>
</g>
</svg>
