<?xml version="1.0" encoding="utf-8"?>
<!-- Generator: Adobe Illustrator 22.1.0, SVG Export Plug-In . SVG Version: 6.00 Build 0)  -->
<svg version="1.1" id="Capa_1" xmlns="http://www.w3.org/2000/svg" xmlns:xlink="http://www.w3.org/1999/xlink" x="0px" y="0px"
	 viewBox="0 0 959.2 959.2" style="enable-background:new 0 0 959.2 959.2;" xml:space="preserve">
<g>
	<path d="M923.8,2.3L822.3,48.5c-6.5,3-12.5,7.1-17.6,12.2L639.3,226.2L69.7,157.9c-10.3-1.2-20.7,2.3-28,9.7L10,199.3
		c-16.8,16.8-11.6,45.2,10.1,54.9l408.2,183L311.1,554.4H106.4c-9,0-17.6,3.6-24,9.9l-17.1,17.2c-17,17-11.4,45.7,10.6,55.1
		l172.7,74l74,172.7c9.4,22,38.2,27.6,55.1,10.6l17.2-17.2c6.4-6.4,9.9-15,9.9-24V648L522,530.8l183,408.3
		c9.7,21.7,38.1,26.9,54.9,10.1l31.7-31.7c7.4-7.4,10.9-17.7,9.7-28l-68.4-569.6l165.5-165.5c5.1-5.1,9.2-11,12.2-17.6l46.2-101.5
		C966.5,14.4,944.9-7.3,923.8,2.3z"/>
</g>
</svg>
