<?xml version="1.0" encoding="utf-8"?>
<!-- Generator: Adobe Illustrator 22.1.0, SVG Export Plug-In . SVG Version: 6.00 Build 0)  -->
<svg version="1.1" id="Capa_1" xmlns="http://www.w3.org/2000/svg" xmlns:xlink="http://www.w3.org/1999/xlink" x="0px" y="0px"
	 viewBox="0 0 297 297" style="enable-background:new 0 0 297 297;" xml:space="preserve">
<g>
	<path d="M251,277h-17.7l0-31.6c0-31.6-17.4-60.7-48.9-81.9c-4-2.7-6.5-8.4-6.5-15.1s2.5-12.4,6.5-15.1
		c31.5-21.2,48.9-50.3,48.9-81.9V20H251c5.5,0,10-4.5,10-10s-4.5-10-10-10H46c-5.5,0-10,4.5-10,10c0,5.5,4.5,10,10,10h17.7v31.6
		c0,31.6,17.4,60.7,48.9,81.9c4,2.7,6.5,8.4,6.5,15.1s-2.5,12.4-6.5,15.1c-31.5,21.2-48.9,50.3-48.9,81.9V277H46
		c-5.5,0-10,4.5-10,10c0,5.5,4.5,10,10,10h205c5.5,0,10-4.5,10-10S256.5,277,251,277z M83.7,245.5c0-33.4,25.1-55.3,40-65.3
		c9.6-6.4,15.3-18.3,15.3-31.6s-5.7-25.2-15.3-31.6c-15-10-40-31.9-40-65.3V20h129.7l0,31.6c0,33.4-25.1,55.3-40,65.3
		c-9.6,6.4-15.3,18.3-15.3,31.6s5.7,25.2,15.3,31.6c15,10,40,31.9,40,65.3V277H210c-8.2-30.9-50.1-64.4-55.4-68.5
		c-3.6-2.8-8.7-2.8-12.3,0c-5.2,4.1-47.2,37.7-55.4,68.5h-3.3L83.7,245.5L83.7,245.5z M189,277H108c6.6-15.4,25.4-34.9,40.5-47.8
		C163.7,242.1,182.4,261.6,189,277z"/>
	<path d="M148.5,191c2.6,0,5.2-1.1,7.1-2.9c1.9-1.9,2.9-4.4,2.9-7.1s-1.1-5.2-2.9-7.1c-1.9-1.9-4.4-2.9-7.1-2.9
		c-2.6,0-5.2,1.1-7.1,2.9c-1.9,1.9-2.9,4.4-2.9,7.1s1.1,5.2,2.9,7.1C143.3,189.9,145.9,191,148.5,191z"/>
	<path d="M148.5,138c5.5,0,10-4.5,10-10v-17.7c0-5.5-4.5-10-10-10s-10,4.5-10,10V128C138.5,133.5,143,138,148.5,138z"/>
</g>
</svg>
