<?xml version="1.0" encoding="utf-8"?>
<!-- Generator: Adobe Illustrator 22.1.0, SVG Export Plug-In . SVG Version: 6.00 Build 0)  -->
<svg version="1.1" id="Capa_1" xmlns="http://www.w3.org/2000/svg" xmlns:xlink="http://www.w3.org/1999/xlink" x="0px" y="0px"
	 viewBox="0 0 512 512" style="enable-background:new 0 0 512 512;" xml:space="preserve">
<g>
	<g>
		<path d="M319.1,137.4c-8.5-8.5-19.7-13.1-31.7-13.1s-23.2,4.7-31.7,13.1l-0.2,0.2l-0.2-0.2c-8.5-8.5-19.7-13.1-31.7-13.1
			c-12,0-23.2,4.7-31.7,13.1c-17.5,17.5-17.5,45.9,0,63.3l63.4,63.9l63.8-63.8c8.5-8.5,13.1-19.7,13.1-31.7
			C332.2,157.2,327.5,145.9,319.1,137.4z M297.5,179.3l-42.2,42.2l-41.9-42.2c-5.6-5.6-5.6-14.7,0-20.3c2.7-2.7,6.3-4.2,10.2-4.2
			c3.8,0,7.5,1.5,10.2,4.2l21.8,21.8l21.8-21.8c5.6-5.6,14.7-5.6,20.3,0c2.7,2.7,4.2,6.3,4.2,10.2
			C301.7,173,300.2,176.6,297.5,179.3z"/>
	</g>
</g>
<g>
	<g>
		<path d="M337.6,29.5V0H174.4v29.5H58.2v392.2l89.7,90.2h305.9V29.5H337.6z M204.8,30.4h102.4V57H204.8V30.4z M110,430.7l29,0
			l0,29.2L110,430.7z M169.4,481.6l0-81.3l-80.8,0V60h85.7v27.4h163.3V60h85.7v421.6L169.4,481.6L169.4,481.6z"/>
	</g>
</g>
<g>
	<g>
		<rect x="164.7" y="307.1" width="182.6" height="30.4"/>
	</g>
</g>
<g>
	<g>
		<rect x="202.4" y="367.9" width="107.1" height="30.4"/>
	</g>
</g>
</svg>
