<?xml version="1.0" encoding="utf-8"?><svg xmlns="http://www.w3.org/2000/svg" xmlns:xlink="http://www.w3.org/1999/xlink"><symbol viewBox="0 0 556.2 556.2" id="1" xmlns="http://www.w3.org/2000/svg"><path d="M173.7 493.9c39.2 0 75.3-13.2 104.4-35.2 29.1 22 65.2 35.2 104.4 35.2 95.8 0 173.7-77.9 173.7-173.7 0-95.8-77.9-173.7-173.7-173.7-39.2 0-75.3 13.2-104.4 35.2-29.1-22-65.2-35.2-104.4-35.2C77.9 146.5 0 224.4 0 320.2 0 416 77.9 493.9 173.7 493.9zM278.1 250c13.5 20.1 21.4 44.2 21.4 70.2s-7.9 50.1-21.4 70.2c-13.5-20.1-21.4-44.2-21.4-70.2s7.9-50.1 21.4-70.2zm104.4-55.7c69.4 0 125.9 56.5 125.9 125.9s-56.5 125.9-125.9 125.9c-26 0-50.2-7.9-70.3-21.5 22-29.1 35.2-65.1 35.2-104.3s-13.2-75.2-35.2-104.3c20.1-13.7 44.3-21.7 70.3-21.7zm-208.8 0c26 0 50.2 7.9 70.3 21.5-22 29.1-35.2 65.2-35.2 104.3S222 395.3 244 424.4c-20.1 13.6-44.3 21.5-70.3 21.5-69.4 0-125.9-56.5-125.9-125.9 0-69.2 56.5-125.7 125.9-125.7z"/><path d="M274.8 77.9h-.2s-26.4-28.9-49.5-7.8-2.9 69.9 49.5 91l.2.2c52.4-21.1 72.6-70 49.5-91.2-23.1-21.2-49.5 7.8-49.5 7.8z"/></symbol><symbol viewBox="0 0 535.5 535.5" id="10" xmlns="http://www.w3.org/2000/svg"><path d="M511.6 288.5c-13.2 0-23.9 10.7-23.9 23.9v36.1l-59.8-59.8c13.6-20 21-43.6 21-68.3 0-32.5-12.7-63-35.6-86-23-23-53.5-35.6-86-35.6-21 0-41.1 5.3-58.9 15.3-17.8-9.9-38-15.3-58.9-15.3-32.5 0-63 12.7-86 35.6-23 23-35.6 53.5-35.6 86 0 24.7 7.4 48.3 21 68.3L48 349.6v-46.8c0-13.2-10.7-23.9-23.9-23.9S0 289.7 0 302.9v95.6c0 10.4 6.6 19.1 15.8 22.4 3.3 9.2 12.1 15.8 22.4 15.8h95.6c13.2 0 23.9-10.7 23.9-23.9s-10.7-23.9-23.9-23.9H76.2l66.7-66.7c19.6 12.9 42.5 19.8 66.5 19.8 21 0 41.1-5.3 58.9-15.3 17.8 9.9 38 15.3 58.9 15.3 24 0 46.9-6.9 66.5-19.8l66.7 66.7h-49.3c-13.2 0-23.9 10.7-23.9 23.9s10.7 23.9 23.9 23.9h95.6c7.8 0 14.7-3.8 19.1-9.6 5.8-4.4 9.6-11.2 9.6-19.1v-95.6c.1-13.2-10.6-23.9-23.8-23.9zm-243.3-23.7c-9.6-12.7-14.9-28.1-14.9-44.4s5.3-31.6 14.9-44.4c9.6 12.7 14.9 28.1 14.9 44.4 0 16.2-5.3 31.6-14.9 44.4zm-58.9 29.5c-19.7 0-38.3-7.7-52.2-21.6-13.9-13.9-21.6-32.5-21.6-52.2s7.7-38.3 21.6-52.2c13.9-13.9 32.5-21.6 52.2-21.6 6.6 0 13.1.9 19.4 2.6-15 20.6-23.2 45.3-23.2 71.2s8.2 50.6 23.2 71.2c-6.3 1.6-12.8 2.6-19.4 2.6zm98.5-2.7c15-20.6 23.2-45.3 23.2-71.2s-8.2-50.6-23.1-71.2c6.2-1.7 12.7-2.6 19.4-2.6 19.7 0 38.3 7.7 52.2 21.6 13.9 13.9 21.6 32.5 21.6 52.2s-7.7 38.3-21.6 52.2c-13.9 13.9-32.5 21.6-52.2 21.6-6.8.1-13.3-.9-19.5-2.6z"/></symbol><symbol viewBox="0 0 297 297" id="2" xmlns="http://www.w3.org/2000/svg"><path d="M251 277h-17.7v-31.6c0-31.6-17.4-60.7-48.9-81.9-4-2.7-6.5-8.4-6.5-15.1s2.5-12.4 6.5-15.1c31.5-21.2 48.9-50.3 48.9-81.9V20H251c5.5 0 10-4.5 10-10s-4.5-10-10-10H46c-5.5 0-10 4.5-10 10s4.5 10 10 10h17.7v31.6c0 31.6 17.4 60.7 48.9 81.9 4 2.7 6.5 8.4 6.5 15.1s-2.5 12.4-6.5 15.1c-31.5 21.2-48.9 50.3-48.9 81.9V277H46c-5.5 0-10 4.5-10 10s4.5 10 10 10h205c5.5 0 10-4.5 10-10s-4.5-10-10-10zM83.7 245.5c0-33.4 25.1-55.3 40-65.3 9.6-6.4 15.3-18.3 15.3-31.6s-5.7-25.2-15.3-31.6c-15-10-40-31.9-40-65.3V20h129.7v31.6c0 33.4-25.1 55.3-40 65.3-9.6 6.4-15.3 18.3-15.3 31.6s5.7 25.2 15.3 31.6c15 10 40 31.9 40 65.3V277H210c-8.2-30.9-50.1-64.4-55.4-68.5-3.6-2.8-8.7-2.8-12.3 0-5.2 4.1-47.2 37.7-55.4 68.5h-3.3l.1-31.5zM189 277h-81c6.6-15.4 25.4-34.9 40.5-47.8 15.2 12.9 33.9 32.4 40.5 47.8z"/><path d="M148.5 191c2.6 0 5.2-1.1 7.1-2.9 1.9-1.9 2.9-4.4 2.9-7.1s-1.1-5.2-2.9-7.1c-1.9-1.9-4.4-2.9-7.1-2.9-2.6 0-5.2 1.1-7.1 2.9-1.9 1.9-2.9 4.4-2.9 7.1s1.1 5.2 2.9 7.1c1.9 1.8 4.5 2.9 7.1 2.9zm0-53c5.5 0 10-4.5 10-10v-17.7c0-5.5-4.5-10-10-10s-10 4.5-10 10V128c0 5.5 4.5 10 10 10z"/></symbol><symbol viewBox="0 0 512 512" id="3" xmlns="http://www.w3.org/2000/svg"><path d="M511.8 321.2l-6-50.4c-.6-5.4-5.5-9.3-10.9-8.8-19.9 2-38-12.5-40.4-32.3-2.4-19.9 11.8-38.2 31.6-40.9 5.4-.7 9.2-5.7 8.6-11.1l-6-50.4c-1-8.7-5.4-16.5-12.3-21.9-6.9-5.4-15.5-7.8-24.2-6.8L101 140.5c-8.6 1-16.3 5.3-21.7 12.1H32.8C14.7 152.7 0 167.4 0 185.5v50.8c0 5.5 4.4 9.9 9.8 10 20 .3 36.3 16.9 36.3 36.9S29.8 319.7 9.8 320c-5.5.1-9.8 4.5-9.8 10v50.8c0 18.1 14.7 32.8 32.8 32.8h353.7c18.1 0 32.8-14.7 32.8-32.8v-15.4l63.7-7.6c8.7-1 16.5-5.4 21.9-12.3 5.5-7 7.9-15.5 6.9-24.3zm-112.4 26.4v33.1c0 7.1-5.8 12.8-12.8 12.8h-62v-18.7c0-5.5-4.5-10-10-10s-10 4.5-10 10v18.8H32.8c-7.1 0-12.8-5.8-12.8-12.8V339c11.2-2.2 21.6-7.6 29.7-16C60.2 312.3 66 298.1 66 283.1s-5.8-29.2-16.3-39.9c-8.2-8.3-18.5-13.8-29.7-16v-41.8c0-7.1 5.8-12.8 12.8-12.8h271.8v121.8c0 5.5 4.5 10 10 10s10-4.5 10-10V172.7h62c7.1 0 12.8 5.8 12.8 12.8v41.8c-11.2 2.2-21.6 7.6-29.7 16-10.5 10.7-16.3 24.9-16.3 39.9s5.8 29.2 16.3 39.9c8.2 8.3 18.5 13.8 29.7 16v8.5zm89.8-14.5c-2.1 2.7-5.2 4.4-8.6 4.8l-61.3 7.3V330c0-5.5-4.4-9.9-9.8-10-20-.3-36.3-16.9-36.3-36.9s16.3-36.5 36.3-36.9c5.5-.1 9.8-4.5 9.8-10v-50.8c0-18.1-14.7-32.8-32.8-32.8H168.3l286.2-34.2c3.4-.4 6.8.5 9.5 2.7 2.7 2.1 4.4 5.2 4.8 8.6l5 41.5c-10.9 3.5-20.5 10.1-27.6 19.4-9.2 11.9-13.3 26.6-11.5 41.6s9.2 28.3 21 37.7c9.1 7.3 20 11.5 31.4 12.3l5 41.5c.2 3.3-.7 6.7-2.9 9.4z"/><path d="M323.8 330.8c-.3-.6-.6-1.2-.9-1.7-.4-.5-.8-1.1-1.2-1.5s-1-.9-1.5-1.2c-.5-.4-1.1-.7-1.7-.9s-1.2-.5-1.9-.6c-1.3-.3-2.6-.3-3.9 0-.6.1-1.3.3-1.9.6-.6.3-1.2.5-1.7.9s-1.1.8-1.5 1.2c-.5.5-.9 1-1.3 1.5s-.7 1.1-.9 1.7c-.3.6-.4 1.2-.6 1.9s-.2 1.3-.2 2c0 .6.1 1.3.2 2s.3 1.3.6 1.9c.3.6.6 1.2.9 1.7.4.5.8 1.1 1.3 1.5.5.5 1 .9 1.5 1.2.5.4 1.1.7 1.7.9.6.3 1.2.5 1.9.6.6.1 1.3.2 2 .2.6 0 1.3-.1 2-.2.6-.1 1.3-.3 1.9-.6s1.2-.6 1.7-.9c.5-.4 1.1-.8 1.5-1.2s.9-1 1.2-1.5c.4-.5.7-1.1.9-1.7.3-.6.4-1.2.6-1.9.1-.6.2-1.3.2-2 0-.6-.1-1.3-.2-2s-.5-1.3-.7-1.9zm-81.9-73.5l-43.9-6.4-19.6-39.8c-1.7-3.4-5.2-5.6-9-5.6s-7.3 2.2-9 5.6l-17.3 35-2.4 4.8-16.6 2.4-27.3 4c-3.8.5-6.9 3.2-8.1 6.8s-.2 7.6 2.5 10.3l26.5 25.8 5.3 5.2-3 17.6-4.5 26.1c-.6 3.8.9 7.5 4 9.8 3.1 2.2 7.2 2.5 10.5.8l39.3-20.7 39.3 20.7c1.5.8 3.1 1.1 4.7 1.1 2.1 0 4.1-.6 5.9-1.9 3.1-2.2 4.6-6 4-9.8l-7.5-43.8 31.8-31c2.7-2.7 3.7-6.6 2.5-10.3-1.2-3.5-4.4-6.2-8.1-6.7zm-44 37.4c-2.4 2.3-3.4 5.6-2.9 8.9l5 29-26-13.7c-2.9-1.5-6.4-1.5-9.3 0l-26 13.7 5-29c.3-1.5.2-3-.2-4.4-.5-1.7-1.4-3.2-2.6-4.4l-12.3-12-8.7-8.5 10.1-1.5 19-2.8c.3 0 .6-.1.9-.2 2.9-.7 5.3-2.6 6.6-5.3l13-26.4 13 26.4c1.5 3 4.3 5 7.5 5.5l29.1 4.2-21.2 20.5z"/></symbol><symbol viewBox="0 0 512 512" id="4" xmlns="http://www.w3.org/2000/svg"><path d="M319.1 137.4c-8.5-8.5-19.7-13.1-31.7-13.1s-23.2 4.7-31.7 13.1l-.2.2-.2-.2c-8.5-8.5-19.7-13.1-31.7-13.1s-23.2 4.7-31.7 13.1c-17.5 17.5-17.5 45.9 0 63.3l63.4 63.9 63.8-63.8c8.5-8.5 13.1-19.7 13.1-31.7 0-11.9-4.7-23.2-13.1-31.7zm-21.6 41.9l-42.2 42.2-41.9-42.2c-5.6-5.6-5.6-14.7 0-20.3 2.7-2.7 6.3-4.2 10.2-4.2 3.8 0 7.5 1.5 10.2 4.2l21.8 21.8 21.8-21.8c5.6-5.6 14.7-5.6 20.3 0 2.7 2.7 4.2 6.3 4.2 10.2-.2 3.8-1.7 7.4-4.4 10.1z"/><path d="M337.6 29.5V0H174.4v29.5H58.2v392.2l89.7 90.2h305.9V29.5H337.6zm-132.8.9h102.4V57H204.8V30.4zM110 430.7h29v29.2l-29-29.2zm59.4 50.9v-81.3H88.6V60h85.7v27.4h163.3V60h85.7v421.6H169.4z"/><path d="M164.7 307.1h182.6v30.4H164.7zm37.7 60.8h107.1v30.4H202.4z"/></symbol><symbol viewBox="0 0 512 512" id="5" xmlns="http://www.w3.org/2000/svg"><circle cx="256" cy="64" r="64"/><path d="M351.9 302l-14.5-113.2c-1.6-16.4-15.3-28.8-31.8-28.8H288c-4.3 0-8.3 1.7-11.3 4.7L256 185.3l-20.7-20.7c-3-3-7.1-4.7-11.3-4.7h-17.5c-16.5 0-30.2 12.4-31.8 28.4L160.1 302c-.6 4.5.8 9.2 3.9 12.6 3 3.5 7.4 5.4 12 5.4h17.3l13.4 163.2c1.6 16.4 15.3 28.8 31.8 28.8h35c16.5 0 30.2-12.4 31.9-29.1L318.8 320H336c4.6 0 9-2 12-5.4 3.1-3.5 4.5-8.1 3.9-12.6z"/><circle cx="416" cy="64" r="64"/><path d="M96 0C60.7 0 32 28.7 32 64s28.7 64 64 64 64-28.7 64-64S131.3 0 96 0zm415.9 302l-14.5-113.1c-1.6-16.4-15.3-28.8-31.8-28.8H448c-4.3 0-8.3 1.7-11.3 4.7L416 185.3l-20.7-20.7c-3-3-7.1-4.7-11.3-4.7h-17.5c-2 0-3.8.7-5.7 1.1 4.1 7.3 7.4 15.2 8.3 24.1l14.5 112.8c1.8 13.7-2.5 27.6-11.7 38-4.4 5-9.9 8.5-15.9 11.3l10.6 104.1c1.6 16.4 15.3 28.8 31.8 28.8h35c16.5 0 30.2-12.4 31.9-29.1l13.5-131H496c4.6 0 9-2 12-5.4 3.1-3.5 4.5-8.1 3.9-12.6zM140 335.7c-9.1-10.3-13.3-24.1-11.6-37.7L143 184.4c.8-8.5 4-16.2 8-23.3-1.8-.3-3.5-1-5.4-1H128c-4.3 0-8.3 1.7-11.3 4.7L96 185.3l-20.7-20.7c-3-3-7.1-4.7-11.3-4.7H46.5c-16.5 0-30.2 12.4-31.8 28.4L.1 302c-.6 4.5.8 9.2 3.9 12.6 3 3.5 7.4 5.4 12 5.4h17.3l13.4 131.2C48.3 467.6 62 480 78.5 480h35c16.5 0 30.2-12.4 31.9-29.1L156 347.1c-6-2.8-11.6-6.4-16-11.4z"/></symbol><symbol viewBox="0 0 47 47" id="6" xmlns="http://www.w3.org/2000/svg"><path d="M46.9 20.1c-.2-.3-.5-.6-.9-.6h-2.9C41.2 9.5 32.4 1.8 21.7 1.8 9.7 1.8 0 11.5 0 23.5s9.7 21.7 21.7 21.7c7.7 0 14.9-4.2 18.8-10.9.5-.9.2-2.2-.7-2.7-.9-.5-2.2-.2-2.7.7-3.2 5.5-9.1 8.9-15.4 8.9-9.8 0-17.8-8-17.8-17.8s8-17.8 17.8-17.8c8.4 0 15.5 5.9 17.3 13.8h-2.9c-.4 0-.7.2-.9.6-.2.3-.1.8.1 1.1l4.9 5.9c.2.2.5.4.8.4.3 0 .6-.1.8-.4l4.9-5.9c.3-.2.4-.6.2-1z"/><path d="M21.7 6.7c-1.1 0-2 .9-2 2v12c-.9.6-1.5 1.7-1.5 2.8 0 1.9 1.6 3.5 3.5 3.5.5 0 1-.1 1.5-.3l6.9 4c.3.2.6.3 1 .3.7 0 1.3-.4 1.7-1 .5-.9.2-2.2-.7-2.7l-6.9-4c-.1-1-.6-2-1.4-2.5v-12c-.1-1.2-1-2.1-2.1-2.1zm0 18.3c-.8 0-1.5-.7-1.5-1.5s.7-1.5 1.5-1.5 1.5.7 1.5 1.5-.7 1.5-1.5 1.5z"/></symbol><symbol viewBox="0 0 959.2 959.2" id="7" xmlns="http://www.w3.org/2000/svg"><path d="M923.8 2.3L822.3 48.5c-6.5 3-12.5 7.1-17.6 12.2L639.3 226.2 69.7 157.9c-10.3-1.2-20.7 2.3-28 9.7L10 199.3c-16.8 16.8-11.6 45.2 10.1 54.9l408.2 183-117.2 117.2H106.4c-9 0-17.6 3.6-24 9.9l-17.1 17.2c-17 17-11.4 45.7 10.6 55.1l172.7 74 74 172.7c9.4 22 38.2 27.6 55.1 10.6l17.2-17.2c6.4-6.4 9.9-15 9.9-24V648L522 530.8l183 408.3c9.7 21.7 38.1 26.9 54.9 10.1l31.7-31.7c7.4-7.4 10.9-17.7 9.7-28l-68.4-569.6 165.5-165.5c5.1-5.1 9.2-11 12.2-17.6l46.2-101.5c9.7-20.9-11.9-42.6-33-33z"/></symbol><symbol viewBox="0 0 512 512" id="8" xmlns="http://www.w3.org/2000/svg"><path d="M498.7 435.3L297.9 234.6 63.4 0H45l-3.7 9.5c-9.9 25.1-14.1 50.8-12.2 74.2 2.2 26.8 12.3 49.9 29.4 67l183.1 183.1 24.2-24.2L435 499c16.8 16.8 45.8 17.8 63.7 0 17.5-17.6 17.5-46.1 0-63.7zm-342-143.9L13.3 434.9c-17.6 17.6-17.6 46.1 0 63.7 16.7 16.7 45.5 18.1 63.7 0l143.4-143.4-63.7-63.8zM490.3 85.2l-81.4 81.3-21.2-21.2L469 64l-21.2-21.2-81.4 81.3-21.2-21.2 81.4-81.3L405.4.4 299.3 106.5c-13 13-20.7 30.2-21.8 48.5-.3 4.6-1.3 9.2-3.1 13.5l68.9 68.9c4.3-1.7 8.9-2.8 13.5-3.1 18.3-1.1 35.6-8.8 48.5-21.8l106.1-106.1-21.1-21.2z"/></symbol><symbol viewBox="0 0 484.2 484.2" id="9" xmlns="http://www.w3.org/2000/svg"><path d="M309.4 219.9c-19-10.5-39.2-18.5-59.2-26.8-11.6-4.8-22.7-10.4-32.5-18.2-19.3-15.4-15.6-40.4 7-50.3 6.4-2.8 13.1-3.7 19.9-4.1 26.2-1.4 51.1 3.4 74.8 14.8 11.8 5.7 15.7 3.9 19.7-8.4 4.2-13 7.7-26.2 11.6-39.3 2.6-8.8-.6-14.6-8.9-18.3-15.2-6.7-30.8-11.5-47.2-14.1-21.4-3.3-21.4-3.4-21.5-24.9C273 0 273 0 242.6 0c-4.4 0-8.8-.1-13.2 0-14.2.4-16.6 2.9-17 17.2-.2 6.4 0 12.8-.1 19.3-.1 19-.2 18.7-18.4 25.3-44 16-71.2 46-74.1 94-2.6 42.5 19.6 71.2 54.5 92.1 21.5 12.9 45.3 20.5 68.1 30.6 8.9 3.9 17.4 8.4 24.8 14.6 21.9 18.1 17.9 48.2-8.1 59.6-13.9 6.1-28.6 7.6-43.7 5.7-23.3-2.9-45.6-9-66.6-19.9-12.3-6.4-15.9-4.7-20.1 8.6-3.6 11.5-6.8 23.1-10 34.7-4.3 15.6-2.7 19.3 12.2 26.6 19 9.2 39.3 13.9 60 17.2 16.2 2.6 16.7 3.3 16.9 20.1.1 7.6.1 15.3.2 22.9.1 9.6 4.7 15.2 14.6 15.4 11.2.2 22.5.2 33.7-.1 9.2-.2 13.9-5.2 13.9-14.5 0-10.4.5-20.9.1-31.3-.5-10.6 4.1-16 14.3-18.8 23.5-6.4 43.5-19 58.9-37.8 42.8-52 26.5-128.1-34.1-161.6z"/></symbol></svg>